<svg width="150" height="65" viewBox="0 0 150 65" fill="none" xmlns="http://www.w3.org/2000/svg">
<path fill-rule="evenodd" clip-rule="evenodd" d="M29.1643 4.74208L27.0248 4.02892L27.1752 3.57788L29.3146 4.29104L29.1643 4.74208ZM42.8831 4.0219L41.2191 4.73506L41.0318 4.29806L42.6958 3.5849L42.8831 4.0219ZM35.1825 8.01113L37.6409 7.11716L37.4784 6.67034L34.9488 7.59021L32.6558 6.67303L32.4793 7.11447L34.707 8.00557V12.1236H35.1825V8.01113ZM23.9068 11.1493L17.9638 8.29666L18.1695 7.86804L24.1125 10.7207L23.9068 11.1493ZM14.6733 11.1636L13.0093 10.6881L13.1399 10.231L14.8039 10.7064L14.6733 11.1636ZM54.8068 11.4355L56.7086 10.4846L56.9212 10.9099L55.0195 11.8608L54.8068 11.4355ZM51.3795 11.646L46.1497 12.3591L46.0854 11.888L51.3152 11.1749L51.3795 11.646ZM51.8443 13.5489L46.6145 14.0244L46.5715 13.5509L51.8013 13.0754L51.8443 13.5489ZM9.19296 16.8648L3.72541 14.963L3.8816 14.514L9.34915 16.4157L9.19296 16.8648ZM14.6551 15.9119L12.7534 15.1988L12.9203 14.7536L14.8221 15.4668L14.6551 15.9119ZM66.1835 17.5702L61.4291 19.7097L61.234 19.2761L65.9884 17.1366L66.1835 17.5702ZM35.1825 18.9998L38.0533 18.779L38.0169 18.305L34.9475 18.5411L32.5912 18.3055L32.5439 18.7785L34.707 18.9948V29.0016H3.80351V29.4771H68.9386V29.0016H35.1825V18.9998ZM28.9551 19.726L26.5779 19.2505L26.6712 18.7843L29.0484 19.2598L28.9551 19.726ZM22.5463 22.1049L18.0296 21.3917L18.1037 20.9221L22.6204 21.6353L22.5463 22.1049ZM16.1293 23.7691L8.28456 22.5805L8.35579 22.1105L16.2005 23.2991L16.1293 23.7691ZM51.6087 23.0575L46.8544 23.5329L46.807 23.0598L51.5614 22.5844L51.6087 23.0575ZM62.5592 23.0554L59.7066 23.5309L59.6285 23.0619L62.4811 22.5865L62.5592 23.0554ZM69.4717 24.0024L66.619 24.7156L66.5037 24.2544L69.3564 23.5412L69.4717 24.0024ZM0 30.1902H18.7798V46.737L13.0828 49.7093L0 43.8947V30.1902ZM0.475439 30.6657V43.5857L12.8368 49.0797V30.6657H0.475439ZM13.3123 30.6657V49.0533L18.3044 46.4488V30.6657H13.3123ZM20.4439 30.1902H41.6009V56.7216L34.9485 60.171L20.4439 53.1604V30.1902ZM20.9193 30.6657V52.8622L34.707 59.5262V30.6657H20.9193ZM35.1825 30.6657V59.5141L41.1254 56.4326V30.6657H35.1825ZM49.6833 30.1902H69.6517V43.6532L56.8137 49.7089L49.6833 46.2666V30.1902ZM50.1588 30.6657V45.9682L56.5772 49.0668V30.6657H50.1588ZM57.0526 30.6657V49.0705L69.1763 43.3518V30.6657H57.0526ZM0 45.7491L34.9444 61.5459L69.3625 45.8797H149.763V48.4946H69.467L34.9451 64.6842L0 48.4084V45.7491ZM69.4656 46.3551L34.9451 62.0679L0.475439 46.4858V48.1054L34.9444 64.1594L69.3611 48.0192H149.288V46.3551H69.4656Z" fill="white"/>
<path d="M3.80268 14.5009L0.474609 16.1649V29.2395H3.80268V23.5342L5.229 23.2965L9.0325 29.2395H12.836L8.55707 22.1079L13.0737 14.9763V10.2219L9.0325 16.5262L7.13075 19.493L3.80268 20.2061V14.5009Z" fill="white"/>
<path d="M18.0658 7.84473L14.5 9.50877V10.9351V15.4518V22.1079L15.6963 23.5342L20.6807 29.4772L27.0992 19.2553V3.56579L23.7711 5.22982V10.6974V19.493L22.2259 21.989L20.6807 24.4851L18.0658 20.9193V7.84473Z" fill="white"/>
<path fill-rule="evenodd" clip-rule="evenodd" d="M28.7632 29.4772V19.493V4.27895V2.85263L34.9439 0L41.3623 2.85263V29.4772H37.5588V18.5421L34.9439 18.0667L32.5667 18.5421V29.4772H28.7632ZM34.9439 5.94298L32.5667 6.89386V12.8368L34.9439 12.1237L37.3211 12.5991V6.89386L34.9439 5.94298Z" fill="white"/>
<path fill-rule="evenodd" clip-rule="evenodd" d="M42.7886 3.56579V29.4772H50.1579L55.6255 24.0096V12.5991L53.0106 8.32017L42.7886 3.56579ZM50.6334 11.6482L46.8299 10.4596V24.7228L49.4448 24.9605L51.5843 22.821V13.0746L50.6334 11.6482Z" fill="white"/>
<path fill-rule="evenodd" clip-rule="evenodd" d="M56.8141 29.4772V10.4596L69.6509 16.1649V24.0096L66.0851 23.5342L69.4132 29.4772H66.0851L62.2816 22.821L59.9044 22.3456V29.4772H56.8141ZM66.0851 17.3535L60.8553 15.4518V19.0175L66.0851 20.4439V17.3535Z" fill="white"/>
<path d="M81.7746 26.8623V27.5754H85.5781V23.7719L71.5527 17.3535V43.5026H85.5781V35.6579H78.6843V38.0351H81.7746V39.6991H75.5939V24.0096L81.7746 26.8623Z" fill="white"/>
<path fill-rule="evenodd" clip-rule="evenodd" d="M87.7176 43.5026V23.7719H101.743V39.6991H97.9395L101.743 43.5026H97.9395L93.8983 39.6991H91.7588V43.5026H87.7176ZM97.9395 27.5754H91.7588V35.6579H97.9395V27.5754Z" fill="white"/>
<path fill-rule="evenodd" clip-rule="evenodd" d="M103.883 23.7719H117.908V43.5026H103.883V23.7719ZM113.867 27.5754H107.924V39.4614H113.867V27.5754Z" fill="white"/>
<path d="M119.81 23.7719H123.851V39.4614H129.794V23.7719H133.835V43.5026H119.81V23.7719Z" fill="white"/>
<path fill-rule="evenodd" clip-rule="evenodd" d="M135.975 23.7719H150V39.4614H140.016V43.5026H135.975V23.7719ZM145.959 27.5754H140.016V35.4202H145.959V27.5754Z" fill="white"/>
</svg>
